<svg width="32" height="32" viewBox="0 0 32 32" fill="none" xmlns="http://www.w3.org/2000/svg">
<rect width="32" height="32" rx="5" fill="#8E8EA9" fill-opacity="0.2"/>
<path d="M7.75 22.95C7.53333 22.95 7.35417 22.8792 7.2125 22.7375C7.07083 22.5958 7 22.4167 7 22.2C7 21.9833 7.07083 21.8042 7.2125 21.6625C7.35417 21.5208 7.53333 21.45 7.75 21.45H12.425C12.6417 21.45 12.8208 21.5208 12.9625 21.6625C13.1042 21.8042 13.175 21.9833 13.175 22.2C13.175 22.4167 13.1042 22.5958 12.9625 22.7375C12.8208 22.8792 12.6417 22.95 12.425 22.95H7.75ZM7.75 10.55C7.53333 10.55 7.35417 10.4792 7.2125 10.3375C7.07083 10.1958 7 10.0167 7 9.8C7 9.58333 7.07083 9.40417 7.2125 9.2625C7.35417 9.12083 7.53333 9.05 7.75 9.05H16.575C16.7917 9.05 16.9708 9.12083 17.1125 9.2625C17.2542 9.40417 17.325 9.58333 17.325 9.8C17.325 10.0167 17.2542 10.1958 17.1125 10.3375C16.9708 10.4792 16.7917 10.55 16.575 10.55H7.75ZM15.425 25C15.2083 25 15.0292 24.9292 14.8875 24.7875C14.7458 24.6458 14.675 24.4667 14.675 24.25V20.125C14.675 19.9083 14.7458 19.7292 14.8875 19.5875C15.0292 19.4458 15.2083 19.375 15.425 19.375C15.6417 19.375 15.8208 19.4458 15.9625 19.5875C16.1042 19.7292 16.175 19.9083 16.175 20.125V21.45H24.25C24.4667 21.45 24.6458 21.5208 24.7875 21.6625C24.9292 21.8042 25 21.9833 25 22.2C25 22.4167 24.9292 22.5958 24.7875 22.7375C24.6458 22.8792 24.4667 22.95 24.25 22.95H16.175V24.25C16.175 24.4667 16.1042 24.6458 15.9625 24.7875C15.8208 24.9292 15.6417 25 15.425 25ZM12.425 18.8C12.2083 18.8 12.0292 18.7292 11.8875 18.5875C11.7458 18.4458 11.675 18.2667 11.675 18.05V16.75H7.75C7.53333 16.75 7.35417 16.6792 7.2125 16.5375C7.07083 16.3958 7 16.2167 7 16C7 15.7833 7.07083 15.6042 7.2125 15.4625C7.35417 15.3208 7.53333 15.25 7.75 15.25H11.675V13.9C11.675 13.6833 11.7458 13.5042 11.8875 13.3625C12.0292 13.2208 12.2083 13.15 12.425 13.15C12.6417 13.15 12.8208 13.2208 12.9625 13.3625C13.1042 13.5042 13.175 13.6833 13.175 13.9V18.05C13.175 18.2667 13.1042 18.4458 12.9625 18.5875C12.8208 18.7292 12.6417 18.8 12.425 18.8ZM15.425 16.75C15.2083 16.75 15.0292 16.6792 14.8875 16.5375C14.7458 16.3958 14.675 16.2167 14.675 16C14.675 15.7833 14.7458 15.6042 14.8875 15.4625C15.0292 15.3208 15.2083 15.25 15.425 15.25H24.25C24.4667 15.25 24.6458 15.3208 24.7875 15.4625C24.9292 15.6042 25 15.7833 25 16C25 16.2167 24.9292 16.3958 24.7875 16.5375C24.6458 16.6792 24.4667 16.75 24.25 16.75H15.425ZM19.575 12.625C19.3583 12.625 19.1792 12.5542 19.0375 12.4125C18.8958 12.2708 18.825 12.0917 18.825 11.875V7.75C18.825 7.53333 18.8958 7.35417 19.0375 7.2125C19.1792 7.07083 19.3583 7 19.575 7C19.7917 7 19.9708 7.07083 20.1125 7.2125C20.2542 7.35417 20.325 7.53333 20.325 7.75V9.05H24.25C24.4667 9.05 24.6458 9.12083 24.7875 9.2625C24.9292 9.40417 25 9.58333 25 9.8C25 10.0167 24.9292 10.1958 24.7875 10.3375C24.6458 10.4792 24.4667 10.55 24.25 10.55H20.325V11.875C20.325 12.0917 20.2542 12.2708 20.1125 12.4125C19.9708 12.5542 19.7917 12.625 19.575 12.625Z" fill="#8E8EA9"/>
</svg>
