<svg width="24" height="24" viewBox="0 0 24 24" fill="none" xmlns="http://www.w3.org/2000/svg">
<path d="M12.0004 7.75V13M21.0804 8.58V15.42C21.0804 16.54 20.4804 17.58 19.5104 18.15L13.5704 21.58C12.6004 22.14 11.4004 22.14 10.4204 21.58L4.4804 18.15C4.00218 17.8727 3.60534 17.4745 3.32975 16.9953C3.05417 16.5161 2.90954 15.9728 2.9104 15.42V8.58C2.9104 7.46 3.5104 6.42 4.4804 5.85L10.4204 2.42C11.3904 1.86 12.5904 1.86 13.5704 2.42L19.5104 5.85C20.4804 6.42 21.0804 7.45 21.0804 8.58Z" stroke="#101010" stroke-width="1.5" stroke-linecap="round" stroke-linejoin="round"/>
<path d="M12.0005 16.2V16.2999" stroke="#101010" stroke-width="2" stroke-linecap="round" stroke-linejoin="round"/>
</svg>
