<svg width="24" height="24" viewBox="0 0 24 24" fill="none" xmlns="http://www.w3.org/2000/svg">
<path d="M12.0006 13.4299C12.4103 13.4299 12.8161 13.3492 13.1946 13.1924C13.5731 13.0357 13.9171 12.8058 14.2068 12.5161C14.4965 12.2264 14.7263 11.8824 14.8831 11.5039C15.0399 11.1254 15.1206 10.7197 15.1206 10.3099C15.1206 9.90022 15.0399 9.49451 14.8831 9.11597C14.7263 8.73743 14.4965 8.39349 14.2068 8.10377C13.9171 7.81405 13.5731 7.58423 13.1946 7.42744C12.8161 7.27064 12.4103 7.18994 12.0006 7.18994C11.1731 7.18994 10.3796 7.51865 9.79444 8.10377C9.20933 8.68888 8.88062 9.48247 8.88062 10.3099C8.88062 11.1374 9.20933 11.931 9.79444 12.5161C10.3796 13.1012 11.1731 13.4299 12.0006 13.4299V13.4299Z" stroke="#101010" stroke-width="1.5"/>
<path d="M3.62069 8.49C5.59069 -0.169998 18.4207 -0.159997 20.3807 8.5C21.5307 13.58 18.3707 17.88 15.6007 20.54C14.6328 21.4735 13.3404 21.9952 11.9957 21.9952C10.6509 21.9952 9.35861 21.4735 8.39069 20.54C5.63069 17.88 2.47069 13.57 3.62069 8.49V8.49Z" stroke="#101010" stroke-width="1.5"/>
</svg>
