<svg width="32" height="32" viewBox="0 0 32 32" fill="none" xmlns="http://www.w3.org/2000/svg">
<circle cx="16" cy="16" r="16" fill="#125A7A"/>
<g clip-path="url(#clip0_318_2458)">
<path d="M8.55254 10.4499C9.15254 7.85491 13.06 7.85491 13.6525 10.4499C14.005 11.9724 13.0375 13.2624 12.1975 14.0649C11.5825 14.6499 10.615 14.6424 10 14.0649C9.16754 13.2624 8.20004 11.9724 8.55254 10.4499ZM18.3025 19.4499C18.9025 16.8549 22.8325 16.8549 23.4325 19.4499C23.785 20.9724 22.8175 22.2624 21.97 23.0649C21.355 23.6499 20.38 23.6424 19.765 23.0649C18.9175 22.2624 17.95 20.9724 18.3025 19.4499Z" stroke="white" stroke-width="1.5"/>
<path d="M16 10.75H18.01C19.3975 10.75 20.0425 12.4675 19 13.3825L13.0075 18.625C11.965 19.5325 12.61 21.25 13.99 21.25H16" stroke="white" stroke-width="2" stroke-linecap="round" stroke-linejoin="round"/>
</g>
<defs>
<clipPath id="clip0_318_2458">
<rect width="18" height="18" fill="white" transform="translate(7 7)"/>
</clipPath>
</defs>
</svg>
