<svg width="24" height="24" viewBox="0 0 24 24" fill="none" xmlns="http://www.w3.org/2000/svg">
<path d="M12.0007 15C12.7964 15 13.5594 14.6839 14.1221 14.1213C14.6847 13.5587 15.0007 12.7956 15.0007 12C15.0007 11.2044 14.6847 10.4413 14.1221 9.87868C13.5594 9.31607 12.7964 9 12.0007 9C11.2051 9 10.442 9.31607 9.87941 9.87868C9.3168 10.4413 9.00073 11.2044 9.00073 12C9.00073 12.7956 9.3168 13.5587 9.87941 14.1213C10.442 14.6839 11.2051 15 12.0007 15V15Z" stroke="#101010" stroke-width="1.5" stroke-miterlimit="10" stroke-linecap="round" stroke-linejoin="round"/>
<path d="M2.00073 12.8801V11.1201C2.00073 10.0801 2.85073 9.22006 3.90073 9.22006C5.71073 9.22006 6.45073 7.94006 5.54073 6.37006C5.02073 5.47006 5.33073 4.30006 6.24073 3.78006L7.97073 2.79006C8.76073 2.32006 9.78073 2.60006 10.2507 3.39006L10.3607 3.58006C11.2607 5.15006 12.7407 5.15006 13.6507 3.58006L13.7607 3.39006C14.2307 2.60006 15.2507 2.32006 16.0407 2.79006L17.7707 3.78006C18.6807 4.30006 18.9907 5.47006 18.4707 6.37006C17.5607 7.94006 18.3007 9.22006 20.1107 9.22006C21.1507 9.22006 22.0107 10.0701 22.0107 11.1201V12.8801C22.0107 13.9201 21.1607 14.7801 20.1107 14.7801C18.3007 14.7801 17.5607 16.0601 18.4707 17.6301C18.9907 18.5401 18.6807 19.7001 17.7707 20.2201L16.0407 21.2101C15.2507 21.6801 14.2307 21.4001 13.7607 20.6101L13.6507 20.4201C12.7507 18.8501 11.2707 18.8501 10.3607 20.4201L10.2507 20.6101C9.78073 21.4001 8.76073 21.6801 7.97073 21.2101L6.24073 20.2201C5.80483 19.9691 5.48631 19.5554 5.35508 19.0698C5.22384 18.5843 5.29061 18.0665 5.54073 17.6301C6.45073 16.0601 5.71073 14.7801 3.90073 14.7801C2.85073 14.7801 2.00073 13.9201 2.00073 12.8801V12.8801Z" stroke="#101010" stroke-width="1.5" stroke-miterlimit="10" stroke-linecap="round" stroke-linejoin="round"/>
</svg>
